<?xml version="1.0" standalone="no"?>
<!DOCTYPE svg PUBLIC "-//W3C//DTD SVG 20010904//EN"
 "http://www.w3.org/TR/2001/REC-SVG-20010904/DTD/svg10.dtd">
<svg version="1.0" xmlns="http://www.w3.org/2000/svg"
 width="300.000000pt" height="300.000000pt" viewBox="0 0 300.000000 300.000000"
 preserveAspectRatio="xMidYMid meet">
<metadata>
Created by potrace 1.11, written by Peter Selinger 2001-2013
</metadata>
<g transform="translate(0.000000,300.000000) scale(0.100000,-0.100000)"
fill="#000000" stroke="none">
<path d="M1274 2830 c-510 -89 -925 -459 -1068 -951 -13 -47 -27 -101 -30
-122 -3 -20 -10 -55 -15 -76 -10 -44 -7 -322 3 -391 10 -64 54 -224 77 -284
108 -272 323 -526 570 -671 131 -76 303 -143 419 -161 19 -3 37 -7 41 -9 10
-7 154 -18 224 -18 357 -1 681 130 942 380 188 180 339 452 382 689 6 32 14
70 17 84 10 41 13 324 4 366 -5 22 -11 56 -14 76 -39 258 -186 531 -392 730
-60 58 -166 141 -226 178 -88 54 -281 137 -359 154 -57 13 -126 28 -149 32
-14 3 -92 6 -175 8 -112 3 -176 0 -251 -14z"/>
</g>
</svg>
